<?xml version="1.0" standalone="no"?>
<!DOCTYPE svg PUBLIC "-//W3C//DTD SVG 20010904//EN"
 "http://www.w3.org/TR/2001/REC-SVG-20010904/DTD/svg10.dtd">
<svg version="1.0" xmlns="http://www.w3.org/2000/svg"
 width="450.000000pt" height="450.000000pt" viewBox="0 0 450.000000 450.000000"
 preserveAspectRatio="xMidYMid meet">
<metadata>
Created by potrace 1.11, written by Peter Selinger 2001-2013
</metadata>
<g transform="translate(0.000000,450.000000) scale(0.100000,-0.100000)"
fill="#000000" stroke="none">
<path d="M1968 4435 c-158 -22 -254 -44 -410 -95 -261 -86 -512 -226 -728
-408 -548 -459 -841 -1182 -770 -1893 78 -768 540 -1428 1235 -1764 316 -153
602 -219 955 -219 353 0 639 66 955 219 1098 531 1555 1839 1024 2934 -178
368 -427 652 -773 882 -276 184 -588 299 -929 344 -143 18 -422 18 -559 0z
m176 -1200 c75 -21 156 -57 211 -94 l45 -30 72 33 c186 84 361 121 533 113
134 -7 204 -25 315 -79 157 -76 268 -216 322 -403 19 -68 23 -103 22 -235 0
-152 -1 -164 -92 -655 -117 -632 -111 -602 -128 -620 -13 -13 -55 -15 -257
-15 -133 0 -247 4 -253 8 -6 4 -13 15 -17 25 -4 10 39 275 94 590 111 625 118
697 82 778 -55 124 -233 156 -416 75 l-48 -21 -3 -175 c-2 -172 -4 -184 -94
-680 -51 -278 -95 -520 -98 -538 -12 -62 -10 -62 -285 -62 l-249 0 -11 23 c-8
19 11 146 91 603 103 588 114 682 90 762 -17 53 -74 107 -132 123 -73 20 -273
-8 -293 -41 -2 -4 -63 -330 -134 -725 -72 -394 -136 -723 -142 -731 -10 -12
-57 -14 -267 -12 -225 3 -256 5 -265 20 -8 12 29 234 147 885 86 477 162 882
167 900 8 25 22 38 62 57 108 51 309 104 497 131 121 18 352 13 434 -10z"/>
</g>
</svg>
