<?xml version="1.0" encoding="utf-8"?>
<!-- Generator: Adobe Illustrator 16.0.0, SVG Export Plug-In . SVG Version: 6.00 Build 0)  -->
<!DOCTYPE svg PUBLIC "-//W3C//DTD SVG 1.1//EN" "http://www.w3.org/Graphics/SVG/1.1/DTD/svg11.dtd">
<svg version="1.1" id="Layer_1" xmlns="http://www.w3.org/2000/svg" xmlns:xlink="http://www.w3.org/1999/xlink" x="0px" y="0px"
	 width="319px" height="173px" viewBox="146.5 309.5 319 173" enable-background="new 146.5 309.5 319 173" xml:space="preserve">
<g transform="translate(84.56819915771484,79.57816314697266)">
	<g transform="translate(61.04496383666992,0)">
		<path fill="#333333" d="M160.387,234.663L160.387,234.663c24.243,0,43.896,19.653,43.896,43.896l0,0
			c0,24.243-19.653,43.896-43.896,43.896l0,0c-24.243,0-43.896-19.653-43.896-43.896l0,0
			C116.49,254.315,136.144,234.663,160.387,234.663z"/>
		<g transform="translate(8.573133264385433,13.171837602459163)">
			<g>
				<path fill="#FFFFFF" d="M154.823,248.22c-2.341-1.89-5.599-3.024-9.379-3.024c-4.68,0-10.206,1.134-14.651,3.024
					c-0.684,0.306-0.99,0.756-1.134,1.368l-6.282,34.542c-0.144,0.918,0.306,1.44,1.134,1.44h8.694c0.756,0,1.206-0.378,1.368-1.206
					l5.13-28.35c1.062-0.54,2.718-0.918,4.392-0.918c3.402,0,4.986,2.124,4.158,6.966L144.4,284.13
					c-0.162,0.828,0.288,1.44,1.206,1.44h8.532c0.756,0,1.296-0.45,1.368-1.206l3.708-20.718c0.45-2.574,0.45-5.058,0.072-7.182
					c1.366-0.756,3.258-1.368,5.058-1.368c3.636,0,5.382,2.124,4.536,6.966l-3.854,22.068c-0.07,0.828,0.308,1.44,1.206,1.44h8.551
					c0.757,0,1.277-0.45,1.367-1.206l3.78-20.718c1.8-10.728-3.492-18.45-13.914-18.45
					C162.239,245.196,158.388,246.331,154.823,248.22z"/>
			</g>
		</g>
	</g>
	<g transform="translate(0,55.77367401123047)">
		<g>
			<g>
				<path fill="#333333" d="M99.13,290.693c-2.34-1.89-5.598-3.023-9.378-3.023c-4.68,0-10.206,1.135-14.652,3.023
					c-0.684,0.307-0.99,0.757-1.134,1.368l-6.282,34.542c-0.144,0.918,0.306,1.439,1.134,1.439h8.694
					c0.756,0,1.206-0.378,1.368-1.206l5.13-28.351c1.062-0.54,2.718-0.918,4.392-0.918c3.402,0,4.986,2.124,4.158,6.967
					l-3.852,22.067c-0.162,0.828,0.288,1.439,1.206,1.439h8.532c0.756,0,1.296-0.45,1.368-1.206l3.708-20.718
					c0.45-2.574,0.45-5.059,0.072-7.183c1.368-0.756,3.258-1.368,5.058-1.368c3.636,0,5.382,2.124,4.536,6.967l-3.852,22.067
					c-0.072,0.828,0.306,1.439,1.206,1.439h8.55c0.756,0,1.278-0.45,1.368-1.206l3.78-20.718c1.8-10.729-3.492-18.45-13.914-18.45
					C106.546,287.67,102.694,288.803,99.13,290.693z M163.84,314.057l1.746-9.521c1.584-9.233-4.464-16.866-14.814-16.866
					c-10.512,0-17.928,5.67-19.584,14.813l-1.584,9.378c-1.746,9.612,4.374,17.173,14.508,17.173
					C155.236,329.034,162.111,323.58,163.84,314.057z M140.944,312.996l1.728-9.756c0.612-3.402,3.186-5.671,6.804-5.671
					c3.636,0,5.22,2.809,4.626,6.21l-1.746,9.666c-0.612,3.564-3.024,5.67-6.948,5.67
					C141.843,319.115,140.259,316.704,140.944,312.996z M178.672,328.044c0.756,0,1.206-0.449,1.35-1.206l4.914-27.899
					c1.296-0.521,2.952-0.899,4.914-0.899c1.584,0,3.096,0.145,4.392,0.378c0.828,0.071,1.44-0.307,1.512-1.135l1.35-7.416
					c0.162-0.756-0.216-1.367-1.044-1.512c-2.196-0.45-4.248-0.685-6.282-0.685c-4.77,0-9.594,1.135-13.986,3.187
					c-0.612,0.288-0.99,0.756-1.134,1.422l-5.976,34.326c-0.144,0.828,0.306,1.439,1.206,1.439H178.672L178.672,328.044z
					 M198.543,302.195l-1.962,10.963c-1.746,9.827,5.148,15.876,15.048,15.876c6.57,0,11.718-1.817,15.804-4.626
					c0.666-0.379,0.756-1.045,0.449-1.801l-3.096-5.832c-0.378-0.828-0.99-0.899-1.746-0.378c-3.023,1.817-6.498,3.023-9.828,3.023
					c-4.158,0-5.976-1.962-5.22-5.977l0.234-1.044h21.006c0.757,0,1.225-0.378,1.368-1.134l1.277-7.345
					c2.053-11.105-4.824-16.254-14.508-16.254C208.227,287.67,200.361,292.277,198.543,302.195z M220.629,304.841h-11.052
					l0.378-2.053c0.684-3.546,3.187-5.509,6.426-5.509c3.87,0,5.148,2.646,4.626,5.671L220.629,304.841z M256.612,299.244
					c0.827,0,1.277-0.379,1.438-1.206l1.206-6.967c0.145-0.827-0.306-1.439-1.206-1.439h-6.048l0.45-8.98
					c0.071-0.847-0.378-1.369-1.296-1.369h-7.398c-0.827,0-1.296,0.451-1.438,1.207l-5.671,32.437
					c-1.962,11.033,3.401,16.109,11.79,16.109c1.297,0,2.719-0.162,3.853-0.379c0.756-0.09,1.134-0.54,1.296-1.296l1.206-7.02
					c0.233-0.99-0.306-1.368-1.206-1.297c-0.756,0-1.439,0-2.052,0c-3.097,0-4.303-1.817-3.689-5.22l2.556-14.58H256.612
					L256.612,299.244z M289.192,326.387c0.685-0.234,0.99-0.757,1.135-1.44l3.401-19.134c2.033-11.34-3.259-18.145-13.536-18.145
					c-6.119,0-11.79,1.368-15.426,3.563c-0.45,0.288-0.45,0.828-0.217,1.513l2.341,6.191c0.307,0.828,0.899,0.989,1.745,0.611
					c2.27-1.062,5.67-1.745,8.982-1.745c4.77,0,5.832,2.033,5.147,5.741l-0.145,1.206c-1.891-0.378-4.158-0.594-6.427-0.594
					c-9.685,0-15.876,3.239-17.172,10.584c-1.513,8.243,3.853,14.292,14.437,14.292C279.291,329.034,284.89,327.899,289.192,326.387
					z M270.291,315.336c0.378-2.269,2.34-3.475,6.048-3.475c1.656,0,3.402,0.234,4.843,0.54l-1.062,6.57
					c-1.368,0.306-3.475,0.611-5.221,0.611C271.57,319.584,269.77,318.216,270.291,315.336z M304.617,290.855
					c-0.612,0.288-0.918,0.756-1.062,1.351l-8.551,48.763c-0.145,0.827,0.234,1.439,1.135,1.439h8.783
					c0.757,0,1.278-0.45,1.351-1.206l2.502-13.843c1.891,1.062,4.465,1.675,7.326,1.675c9,0,15.947-6.139,17.46-15.049l1.513-8.693
					c1.745-10.134-4.303-17.55-15.192-17.55C314.823,287.742,308.991,288.876,304.617,290.855z M322.312,312.473
					c-0.847,4.68-3.187,6.947-7.038,6.947c-1.745,0-3.637-0.521-4.842-1.439l3.401-19.188c1.296-0.685,3.187-1.134,4.985-1.134
					c4.087,0,5.761,1.89,4.843,6.804L322.312,312.473z M341.499,302.195l-1.962,10.963c-1.729,9.827,5.147,15.876,15.048,15.876
					c6.57,0,11.718-1.817,15.804-4.626c0.686-0.379,0.757-1.045,0.45-1.801l-3.096-5.832c-0.378-0.828-0.99-0.899-1.746-0.378
					c-3.023,1.817-6.498,3.023-9.828,3.023c-4.157,0-5.977-1.962-5.22-5.977l0.233-1.044h21.023c0.756,0,1.206-0.378,1.351-1.134
					l1.296-7.345c2.033-11.105-4.842-16.254-14.525-16.254C351.184,287.67,343.318,292.277,341.499,302.195z M363.585,304.841
					h-11.034l0.379-2.053c0.665-3.546,3.168-5.509,6.426-5.509c3.853,0,5.131,2.646,4.607,5.671L363.585,304.841z"/>
			</g>
		</g>
	</g>
</g>
</svg>
